<svg width="86" height="96" viewBox="0 0 86 96" fill="none" xmlns="http://www.w3.org/2000/svg">
<g filter="url(#filter0_d_368_160)">
<path d="M8.80944 37.1615L4.05715 78.2285L10.1298 78.8762L14.8821 37.8094L8.80944 37.1615ZM13.1662 88H72.8339V82.1333H13.1662V88ZM81.9428 78.2285L77.191 37.1615L71.1182 37.8094L75.8706 78.8762L81.9428 78.2285ZM68.0815 29.3333H17.9185V35.2H68.0815V29.3333ZM77.191 37.1615C76.6753 32.7049 72.752 29.3333 68.0815 29.3333V35.2C69.6383 35.2 70.9459 36.3239 71.1182 37.8094L77.191 37.1615ZM72.8339 88C78.2963 88 82.5465 83.441 81.9428 78.2285L75.8706 78.8762C76.0716 80.6139 74.6547 82.1333 72.8339 82.1333V88ZM4.05715 78.2285C3.4539 83.441 7.7037 88 13.1662 88V82.1333C11.3454 82.1333 9.92875 80.6139 10.1298 78.8762L4.05715 78.2285ZM14.8821 37.8094C15.0541 36.3239 16.3618 35.2 17.9185 35.2V29.3333C13.2484 29.3333 9.32513 32.7049 8.80944 37.1615L14.8821 37.8094ZM27.7249 23.4667V20.5333H21.6148V23.4667H27.7249ZM58.2753 20.5333V23.4667H64.3855V20.5333H58.2753ZM43.0001 5.86667C51.4363 5.86667 58.2753 12.4332 58.2753 20.5333H64.3855C64.3855 9.19307 54.8109 0 43.0001 0V5.86667ZM27.7249 20.5333C27.7249 12.4332 34.5638 5.86667 43.0001 5.86667V0C31.1893 0 21.6148 9.19307 21.6148 20.5333H27.7249Z" fill="black"/>
</g>
<defs>
<filter id="filter0_d_368_160" x="0" y="0" width="86" height="96" filterUnits="userSpaceOnUse" color-interpolation-filters="sRGB">
<feFlood flood-opacity="0" result="BackgroundImageFix"/>
<feColorMatrix in="SourceAlpha" type="matrix" values="0 0 0 0 0 0 0 0 0 0 0 0 0 0 0 0 0 0 127 0" result="hardAlpha"/>
<feOffset dy="4"/>
<feGaussianBlur stdDeviation="2"/>
<feComposite in2="hardAlpha" operator="out"/>
<feColorMatrix type="matrix" values="0 0 0 0 0 0 0 0 0 0 0 0 0 0 0 0 0 0 0.25 0"/>
<feBlend mode="normal" in2="BackgroundImageFix" result="effect1_dropShadow_368_160"/>
<feBlend mode="normal" in="SourceGraphic" in2="effect1_dropShadow_368_160" result="shape"/>
</filter>
</defs>
</svg>
