<!--?xml version="1.0" standalone="no"?-->
              <svg id="sw-js-blob-svg" viewBox="0 0 100 100" xmlns="http://www.w3.org/2000/svg" version="1.1">
                    <defs> 
                        <linearGradient id="sw-gradient" x1="0" x2="1" y1="1" y2="0">
                            <stop id="stop1" stop-color="rgba(217, 217, 217, 1)" offset="0%"></stop>
                            <stop id="stop2" stop-color="rgba(74.067, 74.067, 74.067, 1)" offset="100%"></stop>
                        </linearGradient>
                    </defs>
                <path fill="rgba(217, 217, 217, 1)" d="M18.8,-23.4C24.2,-17.9,28.1,-11.8,30.3,-4.6C32.4,2.6,32.7,10.8,29.5,17.5C26.2,24.2,19.4,29.4,11.7,32.2C4,35,-4.5,35.4,-12.4,33C-20.2,30.5,-27.4,25.3,-30.7,18.3C-34,11.4,-33.4,2.8,-32.7,-6.6C-32,-16,-31.3,-26.2,-25.8,-31.6C-20.4,-37.1,-10.2,-37.8,-1.7,-35.7C6.7,-33.7,13.5,-28.9,18.8,-23.4Z" width="100%" height="100%" transform="translate(50 50)" stroke-width="0" style="transition: all 0.3s ease 0s;" stroke="rgba(217, 217, 217, 1)"></path>
              </svg>